<svg aria-hidden="true" style="width:0;height:0;position:absolute" xmlns="http://www.w3.org/2000/svg" overflow="hidden"><defs><symbol id="comments" viewBox="0 0 34 32"><path d="M25.132 13.165c0-5.165-5.627-9.352-12.566-9.352S0 8 0 13.165c0 3.104 2.032 5.854 5.16 7.555-.009.027-2.492 4.545-2.492 4.545s7.582-2.892 7.603-2.904c.744.103 1.511.155 2.295.155 6.939 0 12.566-4.187 12.566-9.351zm9.253 2.922c0-5.164-5.297-9.314-11.031-9.351 8.22 8.188-1.461 16.912-9.351 16.912 0 0 .877 1.79 7.816 1.79.783 0 1.551-.054 2.295-.156.021.014 7.604 2.904 7.604 2.904s-2.484-4.517-2.492-4.544c3.127-1.701 5.159-4.452 5.159-7.555z"/></symbol><symbol id="likes" viewBox="0 0 25 28"><path d="M4 21c0-.547-.453-1-1-1-.562 0-1 .453-1 1 0 .562.438 1 1 1 .547 0 1-.438 1-1zm2.5-8v10c0 .547-.453 1-1 1H1c-.547 0-1-.453-1-1V13c0-.547.453-1 1-1h4.5c.547 0 1 .453 1 1zM25 13c0 .828-.328 1.719-.859 2.328.172.5.234.969.234 1.188a3.303 3.303 0 0 1-.672 2.141 3.301 3.301 0 0 1 0 1.828 3.193 3.193 0 0 1-.844 1.469c.094 1.172-.172 2.125-.766 2.828-.672.797-1.703 1.203-3.078 1.219h-2.016c-2.234 0-4.344-.734-6.031-1.313-.984-.344-1.922-.672-2.469-.688-.531-.016-1-.453-1-1V12.984c0-.516.438-.953.953-1 .578-.047 2.078-1.906 2.766-2.812.562-.719 1.094-1.391 1.578-1.875.609-.609.781-1.547.969-2.453.172-.922.359-1.891 1.031-2.547A.996.996 0 0 1 15.499 2c3.5 0 3.5 2.797 3.5 4 0 1.281-.453 2.188-.875 3-.172.344-.328.5-.453 1h4.328c1.625 0 3 1.375 3 3z"/></symbol><symbol id="search" viewBox="0 0 32 32"><path d="m31.008 27.231-7.58-6.447c-.784-.705-1.622-1.029-2.299-.998a11.954 11.954 0 0 0 2.87-7.787c0-6.627-5.373-12-12-12s-12 5.373-12 12 5.373 12 12 12c2.972 0 5.691-1.081 7.787-2.87-.031.677.293 1.515.998 2.299l6.447 7.58c1.104 1.226 2.907 1.33 4.007.23s.997-2.903-.23-4.007zM12 20a8 8 0 1 1 0-16 8 8 0 0 1 0 16z"/></symbol><symbol id="downloads" viewBox="0 0 32 32"><path d="m23 14-8 8-8-8h5V2h6v12zm-8 8H0v8h30v-8H15zm13 4h-4v-2h4v2z"/></symbol><symbol id="views" viewBox="0 0 32 32"><path d="M16 6C9.021 6 2.972 10.064 0 16c2.972 5.936 9.021 10 16 10s13.027-4.064 16-10c-2.972-5.936-9.021-10-16-10zm7.889 5.303A15.212 15.212 0 0 1 28.559 16a15.223 15.223 0 0 1-4.67 4.697C21.527 22.204 18.799 23 16 23s-5.527-.796-7.889-2.303A15.212 15.212 0 0 1 3.441 16a15.223 15.223 0 0 1 5.041-4.925 8 8 0 1 0 15.036 0c.124.074.248.15.371.228zM16 13a3 3 0 1 1-6 0 3 3 0 0 1 6 0z"/></symbol></defs></svg>